<?xml version="1.0" encoding="UTF-8" standalone="no"?>
<svg
   width="700pt"
   height="700pt"
   version="1.1"
   viewBox="0 0 700 700"
   id="svg253"
   sodipodi:docname="moonshotLogo.svg"
   inkscape:version="1.1.1 (eb90963e84, 2021-10-02)"
   inkscape:export-filename="/home/clemcg/Documents/Projects/moonshot/public/ressources/moonshotLogo.png"
   inkscape:export-xdpi="92.57"
   inkscape:export-ydpi="92.57"
   xmlns:inkscape="http://www.inkscape.org/namespaces/inkscape"
   xmlns:sodipodi="http://sodipodi.sourceforge.net/DTD/sodipodi-0.dtd"
   xmlns="http://www.w3.org/2000/svg"
   xmlns:svg="http://www.w3.org/2000/svg">
  <sodipodi:namedview
     id="namedview255"
     pagecolor="#ffffff"
     bordercolor="#666666"
     borderopacity="1.0"
     inkscape:pageshadow="2"
     inkscape:pageopacity="0.0"
     inkscape:pagecheckerboard="0"
     inkscape:document-units="pt"
     showgrid="false"
     inkscape:zoom="0.41892857"
     inkscape:cx="340.15345"
     inkscape:cy="442.79625"
     inkscape:window-width="1852"
     inkscape:window-height="1016"
     inkscape:window-x="0"
     inkscape:window-y="0"
     inkscape:window-maximized="1"
     inkscape:current-layer="g251" />
  <defs
     id="defs71">
    <symbol
       id="w"
       overflow="visible">
      <path
         d="m18.766-1.125c-0.96875 0.5-1.9805 0.875-3.0312 1.125-1.043 0.25781-2.1367 0.39062-3.2812 0.39062-3.3984 0-6.0898-0.94531-8.0781-2.8438-1.9922-1.9062-2.9844-4.4844-2.9844-7.7344 0-3.2578 0.99219-5.8359 2.9844-7.7344 1.9883-1.9062 4.6797-2.8594 8.0781-2.8594 1.1445 0 2.2383 0.13281 3.2812 0.39062 1.0508 0.25 2.0625 0.625 3.0312 1.125v4.2188c-0.98047-0.65625-1.9453-1.1406-2.8906-1.4531-0.94922-0.3125-1.9492-0.46875-3-0.46875-1.875 0-3.3516 0.60547-4.4219 1.8125-1.0742 1.1992-1.6094 2.8555-1.6094 4.9688 0 2.1055 0.53516 3.7617 1.6094 4.9688 1.0703 1.1992 2.5469 1.7969 4.4219 1.7969 1.0508 0 2.0508-0.14844 3-0.45312 0.94531-0.3125 1.9102-0.80078 2.8906-1.4688z"
         id="path2" />
    </symbol>
    <symbol
       id="b"
       overflow="visible">
      <path
         d="m13.734-11.141c-0.4375-0.19531-0.87109-0.34375-1.2969-0.4375-0.41797-0.10156-0.83984-0.15625-1.2656-0.15625-1.2617 0-2.2305 0.40625-2.9062 1.2188-0.67969 0.80469-1.0156 1.9531-1.0156 3.4531v7.0625h-4.8906v-15.312h4.8906v2.5156c0.625-1 1.3438-1.7266 2.1562-2.1875 0.82031-0.46875 1.8008-0.70312 2.9375-0.70312 0.16406 0 0.34375 0.011719 0.53125 0.03125 0.19531 0.011719 0.47656 0.039062 0.84375 0.078125z"
         id="path5" />
    </symbol>
    <symbol
       id="a"
       overflow="visible">
      <path
         d="m17.641-7.7031v1.4062h-11.453c0.125 1.1484 0.53906 2.0078 1.25 2.5781 0.70703 0.57422 1.7031 0.85938 2.9844 0.85938 1.0312 0 2.082-0.14844 3.1562-0.45312 1.082-0.3125 2.1914-0.77344 3.3281-1.3906v3.7656c-1.1562 0.4375-2.3125 0.76562-3.4688 0.98438-1.1562 0.22656-2.3125 0.34375-3.4688 0.34375-2.7734 0-4.9297-0.70312-6.4688-2.1094-1.5312-1.4062-2.2969-3.3789-2.2969-5.9219 0-2.5 0.75391-4.4609 2.2656-5.8906 1.5078-1.4375 3.582-2.1562 6.2188-2.1562 2.4062 0 4.332 0.73047 5.7812 2.1875 1.4453 1.4492 2.1719 3.3828 2.1719 5.7969zm-5.0312-1.625c0-0.92578-0.27344-1.6719-0.8125-2.2344-0.54297-0.57031-1.25-0.85938-2.125-0.85938-0.94922 0-1.7188 0.26562-2.3125 0.79688s-0.96484 1.2969-1.1094 2.2969z"
         id="path8" />
    </symbol>
    <symbol
       id="g"
       overflow="visible">
      <path
         d="m9.2188-6.8906c-1.0234 0-1.793 0.17188-2.3125 0.51562-0.51172 0.34375-0.76562 0.85547-0.76562 1.5312 0 0.625 0.20703 1.1172 0.625 1.4688 0.41406 0.34375 0.98828 0.51562 1.7188 0.51562 0.92578 0 1.7031-0.32812 2.3281-0.98438 0.63281-0.66406 0.95312-1.4922 0.95312-2.4844v-0.5625zm7.4688-1.8438v8.7344h-4.9219v-2.2656c-0.65625 0.92969-1.3984 1.6055-2.2188 2.0312-0.82422 0.41406-1.8242 0.625-3 0.625-1.5859 0-2.8711-0.45703-3.8594-1.375-0.99219-0.92578-1.4844-2.1289-1.4844-3.6094 0-1.7891 0.61328-3.1016 1.8438-3.9375 1.2383-0.84375 3.1797-1.2656 5.8281-1.2656h2.8906v-0.39062c0-0.76953-0.30859-1.332-0.92188-1.6875-0.61719-0.36328-1.5703-0.54688-2.8594-0.54688-1.0547 0-2.0312 0.10547-2.9375 0.3125-0.89844 0.21094-1.7305 0.52344-2.5 0.9375v-3.7344c1.0391-0.25 2.0859-0.44141 3.1406-0.57812 1.0625-0.13281 2.125-0.20312 3.1875-0.20312 2.7578 0 4.75 0.54688 5.9688 1.6406 1.2266 1.0859 1.8438 2.8555 1.8438 5.3125z"
         id="path11" />
    </symbol>
    <symbol
       id="d"
       overflow="visible">
      <path
         d="m7.7031-19.656v4.3438h5.0469v3.5h-5.0469v6.5c0 0.71094 0.14062 1.1875 0.42188 1.4375s0.83594 0.375 1.6719 0.375h2.5156v3.5h-4.1875c-1.9375 0-3.3125-0.39844-4.125-1.2031-0.80469-0.8125-1.2031-2.1797-1.2031-4.1094v-6.5h-2.4219v-3.5h2.4219v-4.3438z"
         id="path14" />
    </symbol>
    <symbol
       id="f"
       overflow="visible">
      <path
         d="m12.766-13.078v-8.2031h4.9219v21.281h-4.9219v-2.2188c-0.66797 0.90625-1.4062 1.5703-2.2188 1.9844s-1.7578 0.625-2.8281 0.625c-1.8867 0-3.4336-0.75-4.6406-2.25-1.2109-1.5-1.8125-3.4258-1.8125-5.7812 0-2.3633 0.60156-4.2969 1.8125-5.7969 1.207-1.5 2.7539-2.25 4.6406-2.25 1.0625 0 2 0.21484 2.8125 0.64062 0.82031 0.42969 1.5664 1.0859 2.2344 1.9688zm-3.2188 9.9219c1.0391 0 1.8359-0.37891 2.3906-1.1406 0.55078-0.76953 0.82812-1.8828 0.82812-3.3438 0-1.457-0.27734-2.5664-0.82812-3.3281-0.55469-0.76953-1.3516-1.1562-2.3906-1.1562-1.043 0-1.8398 0.38672-2.3906 1.1562-0.55469 0.76172-0.82812 1.8711-0.82812 3.3281 0 1.4609 0.27344 2.5742 0.82812 3.3438 0.55078 0.76172 1.3477 1.1406 2.3906 1.1406z"
         id="path17" />
    </symbol>
    <symbol
       id="o"
       overflow="visible">
      <path
         d="m10.5-3.1562c1.0508 0 1.8516-0.37891 2.4062-1.1406 0.55078-0.76953 0.82812-1.8828 0.82812-3.3438 0-1.457-0.27734-2.5664-0.82812-3.3281-0.55469-0.76953-1.3555-1.1562-2.4062-1.1562-1.0547 0-1.8594 0.38672-2.4219 1.1562-0.55469 0.77344-0.82812 1.8828-0.82812 3.3281 0 1.4492 0.27344 2.5586 0.82812 3.3281 0.5625 0.77344 1.3672 1.1562 2.4219 1.1562zm-3.25-9.9219c0.67578-0.88281 1.4219-1.5391 2.2344-1.9688 0.82031-0.42578 1.7656-0.64062 2.8281-0.64062 1.8945 0 3.4453 0.75 4.6562 2.25 1.207 1.5 1.8125 3.4336 1.8125 5.7969 0 2.3555-0.60547 4.2812-1.8125 5.7812-1.2109 1.5-2.7617 2.25-4.6562 2.25-1.0625 0-2.0078-0.21094-2.8281-0.625-0.8125-0.42578-1.5586-1.0859-2.2344-1.9844v2.2188h-4.8906v-21.281h4.8906z"
         id="path20" />
    </symbol>
    <symbol
       id="n"
       overflow="visible">
      <path
         d="m0.34375-15.312h4.8906l4.125 10.391 3.5-10.391h4.8906l-6.4375 16.766c-0.64844 1.6953-1.4023 2.8828-2.2656 3.5625-0.86719 0.6875-2 1.0312-3.4062 1.0312h-2.8438v-3.2188h1.5312c0.83203 0 1.4375-0.13672 1.8125-0.40625 0.38281-0.26172 0.67969-0.73047 0.89062-1.4062l0.14062-0.42188z"
         id="path23" />
    </symbol>
    <symbol
       id="m"
       overflow="visible">
      <path
         d="m0.14062-20.406h5.2812l5.4219 15.062 5.4062-15.062h5.2812l-7.5625 20.406h-6.2656z"
         id="path26" />
    </symbol>
    <symbol
       id="l"
       overflow="visible">
      <path
         d="m2.3594-21.281h4.8906v21.281h-4.8906z"
         id="path29" />
    </symbol>
    <symbol
       id="e"
       overflow="visible">
      <path
         d="m2.3594-15.312h4.8906v15.312h-4.8906zm0-5.9688h4.8906v4h-4.8906z"
         id="path32" />
    </symbol>
    <symbol
       id="k"
       overflow="visible">
      <path
         d="m16.547-12.766c0.61328-0.94531 1.3477-1.6719 2.2031-2.1719 0.85156-0.5 1.7891-0.75 2.8125-0.75 1.7578 0 3.0977 0.54688 4.0156 1.6406 0.92578 1.0859 1.3906 2.6562 1.3906 4.7188v9.3281h-4.9219v-7.9844-0.35938c0.007813-0.13281 0.015625-0.32031 0.015625-0.5625 0-1.082-0.16406-1.8633-0.48438-2.3438-0.3125-0.48828-0.82422-0.73438-1.5312-0.73438-0.92969 0-1.6484 0.38672-2.1562 1.1562-0.51172 0.76172-0.77344 1.8672-0.78125 3.3125v7.5156h-4.9219v-7.9844c0-1.6953-0.14844-2.7852-0.4375-3.2656-0.29297-0.48828-0.8125-0.73438-1.5625-0.73438-0.9375 0-1.6641 0.38672-2.1719 1.1562-0.51172 0.76172-0.76562 1.8594-0.76562 3.2969v7.5312h-4.9219v-15.312h4.9219v2.2344c0.60156-0.86328 1.2891-1.5156 2.0625-1.9531 0.78125-0.4375 1.6406-0.65625 2.5781-0.65625 1.0625 0 2 0.25781 2.8125 0.76562 0.8125 0.51172 1.4258 1.2305 1.8438 2.1562z"
         id="path35" />
    </symbol>
    <symbol
       id="v"
       overflow="visible">
      <path
         d="m10.75-12.516c0.82031 0 1.4453-0.17969 1.875-0.54688 0.4375-0.36328 0.65625-0.89844 0.65625-1.6094 0-0.69531-0.21875-1.2266-0.65625-1.5938-0.42969-0.375-1.0547-0.5625-1.875-0.5625h-2.9219v4.3125zm0.17188 8.9375c1.0625 0 1.8594-0.22266 2.3906-0.67188 0.53125-0.44531 0.79688-1.125 0.79688-2.0312 0-0.88281-0.26562-1.5469-0.79688-1.9844-0.52344-0.4375-1.3203-0.65625-2.3906-0.65625h-3.0938v5.3438zm4.8906-7.3438c1.1328 0.32422 2.0078 0.92969 2.625 1.8125 0.625 0.88672 0.9375 1.9688 0.9375 3.25 0 1.9688-0.66797 3.4375-2 4.4062-1.3359 0.96875-3.3555 1.4531-6.0625 1.4531h-8.7344v-20.406h7.8906c2.832 0 4.8828 0.42969 6.1562 1.2812 1.2812 0.85547 1.9219 2.2266 1.9219 4.1094 0 1-0.23438 1.8516-0.70312 2.5469-0.46875 0.6875-1.1484 1.2031-2.0312 1.5469z"
         id="path38" />
    </symbol>
    <symbol
       id="c"
       overflow="visible">
      <path
         d="m9.6406-12.188c-1.0859 0-1.9141 0.39062-2.4844 1.1719-0.57422 0.78125-0.85938 1.9062-0.85938 3.375s0.28516 2.5938 0.85938 3.375c0.57031 0.77344 1.3984 1.1562 2.4844 1.1562 1.0625 0 1.875-0.38281 2.4375-1.1562 0.57031-0.78125 0.85938-1.9062 0.85938-3.375s-0.28906-2.5938-0.85938-3.375c-0.5625-0.78125-1.375-1.1719-2.4375-1.1719zm0-3.5c2.6328 0 4.6914 0.71484 6.1719 2.1406 1.4766 1.418 2.2188 3.3867 2.2188 5.9062 0 2.5117-0.74219 4.4805-2.2188 5.9062-1.4805 1.418-3.5391 2.125-6.1719 2.125-2.6484 0-4.7148-0.70703-6.2031-2.125-1.4922-1.4258-2.2344-3.3945-2.2344-5.9062 0-2.5195 0.74219-4.4883 2.2344-5.9062 1.4883-1.4258 3.5547-2.1406 6.2031-2.1406z"
         id="path41" />
    </symbol>
    <symbol
       id="j"
       overflow="visible">
      <path
         d="m14.719-14.828v3.9844c-0.65625-0.45703-1.3242-0.79688-2-1.0156-0.66797-0.21875-1.3594-0.32812-2.0781-0.32812-1.3672 0-2.4336 0.40234-3.2031 1.2031-0.76172 0.79297-1.1406 1.9062-1.1406 3.3438 0 1.4297 0.37891 2.543 1.1406 3.3438 0.76953 0.79297 1.8359 1.1875 3.2031 1.1875 0.75781 0 1.4844-0.10938 2.1719-0.32812 0.6875-0.22656 1.3203-0.56641 1.9062-1.0156v4c-0.76172 0.28125-1.5391 0.48828-2.3281 0.625-0.78125 0.14453-1.5742 0.21875-2.375 0.21875-2.7617 0-4.9219-0.70703-6.4844-2.125-1.5547-1.4141-2.3281-3.3828-2.3281-5.9062 0-2.5312 0.77344-4.5039 2.3281-5.9219 1.5625-1.4141 3.7227-2.125 6.4844-2.125 0.80078 0 1.5938 0.074219 2.375 0.21875 0.78125 0.13672 1.5547 0.35156 2.3281 0.64062z"
         id="path44" />
    </symbol>
    <symbol
       id="i"
       overflow="visible">
      <path
         d="m17.75-9.3281v9.3281h-4.9219v-7.1094c0-1.3438-0.03125-2.2656-0.09375-2.7656s-0.16797-0.86719-0.3125-1.1094c-0.1875-0.3125-0.44922-0.55469-0.78125-0.73438-0.32422-0.17578-0.69531-0.26562-1.1094-0.26562-1.0234 0-1.8242 0.39844-2.4062 1.1875-0.58594 0.78125-0.875 1.8711-0.875 3.2656v7.5312h-4.8906v-21.281h4.8906v8.2031c0.73828-0.88281 1.5195-1.5391 2.3438-1.9688 0.83203-0.42578 1.75-0.64062 2.75-0.64062 1.7695 0 3.1133 0.54688 4.0312 1.6406 0.91406 1.0859 1.375 2.6562 1.375 4.7188z"
         id="path47" />
    </symbol>
    <symbol
       id="u"
       overflow="visible">
      <path
         d="m2.3594-21.281h4.8906v11.594l5.625-5.625h5.6875l-7.4688 7.0312 8.0625 8.2812h-5.9375l-5.9688-6.3906v6.3906h-4.8906z"
         id="path50" />
    </symbol>
    <symbol
       id="h"
       overflow="visible">
      <path
         d="m17.75-9.3281v9.3281h-4.9219v-7.1406c0-1.3203-0.03125-2.2344-0.09375-2.7344s-0.16797-0.86719-0.3125-1.1094c-0.1875-0.3125-0.44922-0.55469-0.78125-0.73438-0.32422-0.17578-0.69531-0.26562-1.1094-0.26562-1.0234 0-1.8242 0.39844-2.4062 1.1875-0.58594 0.78125-0.875 1.8711-0.875 3.2656v7.5312h-4.8906v-15.312h4.8906v2.2344c0.73828-0.88281 1.5195-1.5391 2.3438-1.9688 0.83203-0.42578 1.75-0.64062 2.75-0.64062 1.7695 0 3.1133 0.54688 4.0312 1.6406 0.91406 1.0859 1.375 2.6562 1.375 4.7188z"
         id="path53" />
    </symbol>
    <symbol
       id="t"
       overflow="visible">
      <path
         d="m12.422-21.281v3.2188h-2.7031c-0.6875 0-1.1719 0.125-1.4531 0.375-0.27344 0.25-0.40625 0.6875-0.40625 1.3125v1.0625h4.1875v3.5h-4.1875v11.812h-4.8906v-11.812h-2.4375v-3.5h2.4375v-1.0625c0-1.6641 0.46094-2.8984 1.3906-3.7031 0.92578-0.80078 2.3672-1.2031 4.3281-1.2031z"
         id="path56" />
    </symbol>
    <symbol
       id="s"
       overflow="visible">
      <path
         d="m2.5781-20.406h5.875l7.4219 14v-14h4.9844v20.406h-5.875l-7.4219-14v14h-4.9844z"
         id="path59" />
    </symbol>
    <symbol
       id="r"
       overflow="visible">
      <path
         d="m2.1875-5.9688v-9.3438h4.9219v1.5312c0 0.83594-0.007813 1.875-0.015625 3.125-0.011719 1.25-0.015625 2.0859-0.015625 2.5 0 1.2422 0.03125 2.1328 0.09375 2.6719 0.070313 0.54297 0.17969 0.93359 0.32812 1.1719 0.20703 0.32422 0.47266 0.57422 0.79688 0.75 0.32031 0.16797 0.69141 0.25 1.1094 0.25 1.0195 0 1.8203-0.39062 2.4062-1.1719 0.58203-0.78125 0.875-1.8672 0.875-3.2656v-7.5625h4.8906v15.312h-4.8906v-2.2188c-0.74219 0.89844-1.5234 1.5586-2.3438 1.9844-0.82422 0.41406-1.7344 0.625-2.7344 0.625-1.7617 0-3.1055-0.53906-4.0312-1.625-0.92969-1.082-1.3906-2.6602-1.3906-4.7344z"
         id="path62" />
    </symbol>
    <symbol
       id="q"
       overflow="visible">
      <path
         d="m2.5781-20.406h8.7344c2.5938 0 4.582 0.57812 5.9688 1.7344 1.3945 1.1484 2.0938 2.7891 2.0938 4.9219 0 2.1367-0.69922 3.7812-2.0938 4.9375-1.3867 1.1562-3.375 1.7344-5.9688 1.7344h-3.4844v7.0781h-5.25zm5.25 3.8125v5.7031h2.9219c1.0195 0 1.8047-0.25 2.3594-0.75 0.5625-0.5 0.84375-1.2031 0.84375-2.1094 0-0.91406-0.28125-1.6172-0.84375-2.1094-0.55469-0.48828-1.3398-0.73438-2.3594-0.73438z"
         id="path65" />
    </symbol>
    <symbol
       id="p"
       overflow="visible">
      <path
         d="m2.3594-15.312h4.8906v15.031c0 2.0508-0.49609 3.6172-1.4844 4.7031-0.98047 1.082-2.4062 1.625-4.2812 1.625h-2.4219v-3.2188h0.85938c0.92578 0 1.5625-0.21094 1.9062-0.625 0.35156-0.41797 0.53125-1.2461 0.53125-2.4844zm0-5.9688h4.8906v4h-4.8906z"
         id="path68" />
    </symbol>
  </defs>
  <g
     id="g251">
    <path
       d="M 352.56985,8.1186461 C 163.49544,8.1186461 9.6641225,161.93637 9.6641225,351.02438 c 0,189.08801 153.8313175,342.90573 342.9057275,342.90573 189.0744,0 342.90573,-153.83132 342.90573,-342.90573 0,-189.07441 -153.83133,-342.9057339 -342.90573,-342.9057339 z M 27.3401,351.02438 c 0,-163.96881 121.99823,-299.92005 279.97163,-322.004813 26.94397,7.446908 52.51085,18.152235 76.25435,31.701085 -1.59996,0.653802 -3.18386,1.350117 -4.69346,2.232436 l 1.49369,2.546066 c 2.06763,-1.217217 4.2576,-2.110232 6.5167,-2.849102 15.69611,9.195588 30.55807,19.629988 44.48386,31.179922 l -0.82389,0.02123 v 0.366759 c 0,3.906811 -0.66974,7.744497 -1.9879,11.385577 l 2.76392,0.99929 c 1.29696,-3.56664 1.92953,-7.298054 2.05703,-11.103905 C 506.10062,156.77971 535.07969,250.93206 531.45142,354.64833 526.32318,501.24239 417.58812,622.86415 317.2372,674.89385 159.31005,652.75058 27.334826,514.97332 27.334826,351.04534 Z"
       id="path73"
       sodipodi:nodetypes="sssssccccccccscccsccc"
       style="stroke-width:1.36073" />
    <path
       d="m 401.32506,486.81232 c -3.68882,-2.08899 -7.67537,-3.49218 -11.85855,-4.18847 l -0.47838,2.91279 c 3.84299,0.63252 7.49997,1.92952 10.88059,3.843 z"
       id="path117"
       style="stroke-width:1.36073" />
    <path
       d="m 416.79663,518.01403 v 0.36676 c 0,3.90681 -0.66974,7.74449 -1.98789,11.38556 l 2.76392,0.99929 c 1.44048,-3.97063 2.17406,-8.13789 2.17406,-12.39019 v -0.43586 z"
       id="path119"
       style="stroke-width:1.36073" />
    <path
       d="m 365.11584,487.11169 1.49368,2.54608 c 3.35395,-1.9826 6.99502,-3.33802 10.81147,-4.03976 l -0.53153,-2.90218 c -4.15134,0.77604 -8.11652,2.25365 -11.7735,4.39586 z"
       id="path121"
       style="stroke-width:1.36073" />
    <path
       d="m 417.43618,505.60411 c -1.49368,-3.95458 -3.65167,-7.59563 -6.4103,-10.81147 l -2.23773,1.91892 c 2.53546,2.95007 4.51806,6.2934 5.88941,9.92385 z"
       id="path123"
       style="stroke-width:1.36073" />
    <path
       d="m 401.69246,549.74642 c 3.65698,-2.12615 6.89403,-4.84763 9.61551,-8.09 l -2.2644,-1.89224 c -2.49818,2.98723 -5.46948,5.48541 -8.83418,7.43616 z"
       id="path125"
       style="stroke-width:1.36073" />
    <path
       d="m 352.25688,529.93408 c -1.33949,-3.62513 -2.0358,-7.4522 -2.05702,-11.36963 l -2.93947,0.0212 c 0.0212,4.25761 0.78667,8.41956 2.23773,12.36884 z"
       id="path127"
       style="stroke-width:1.36073" />
    <path
       d="m 365.49686,549.85528 1.47231,-2.55139 c -3.37,-1.93483 -6.35723,-4.41708 -8.87663,-7.3937 l -2.24835,1.91347 c 2.7374,3.21584 5.99038,5.92139 9.6528,8.03147 z"
       id="path129"
       style="stroke-width:1.36073" />
    <path
       d="m 357.8359,497.15393 -2.2644,-1.87632 c -2.70555,3.2689 -4.79972,6.94193 -6.21897,10.92835 l 2.77467,0.98866 c 1.29694,-3.66229 3.22114,-7.0376 5.7087,-10.04075 z"
       id="path131"
       style="stroke-width:1.36073" />
    <path
       d="m 377.32166,554.11438 c 2.01988,0.35081 4.09812,0.52622 6.18183,0.52622 2.14207,0 4.28945,-0.19134 6.38375,-0.55811 l -0.51027,-2.89688 c -3.80053,0.66975 -7.78179,0.69099 -11.55034,0.0318 z"
       id="path133"
       style="stroke-width:1.36073" />
    <path
       d="m 180.41485,588.87083 c -3.80819,-2.15661 -7.92372,-3.60519 -12.24225,-4.32401 l -0.49387,3.00704 c 3.96734,0.65299 7.74265,1.99195 11.23265,3.96734 z"
       id="path117-7"
       style="stroke-width:1.40477" />
    <path
       d="m 196.38703,621.08211 v 0.37862 c 0,4.03322 -0.6914,7.99509 -2.05223,11.75396 l 2.85338,1.03163 c 1.48708,-4.09911 2.24438,-8.40121 2.24438,-12.79109 v -0.44997 z"
       id="path119-3"
       style="stroke-width:1.40477" />
    <path
       d="m 143.03402,589.17988 1.54202,2.62845 c 3.46246,-2.04675 7.22134,-3.44604 11.16128,-4.17046 l -0.54873,-2.99609 c -4.28565,0.80115 -8.37914,2.32657 -12.15446,4.5381 z"
       id="path121-0"
       style="stroke-width:1.40477" />
    <path
       d="m 197.04727,608.27064 c -1.54202,-4.08252 -3.76982,-7.8414 -6.61772,-11.16128 l -2.31013,1.981 c 2.6175,3.04554 4.66425,6.49704 6.07997,10.24495 z"
       id="path123-2"
       style="stroke-width:1.40477" />
    <path
       d="m 135.51852,599.54705 -2.33766,-1.93704 c -2.79311,3.37467 -4.95503,7.16655 -6.4202,11.28196 l 2.86446,1.02064 c 1.33891,-3.78078 3.32536,-7.2653 5.8934,-10.36562 z"
       id="path131-5"
       style="stroke-width:1.40477" />
    <path
       d="m 547.03857,360.10698 c -3.68882,-2.08901 -7.67538,-3.4922 -11.85855,-4.18849 l -0.47838,2.91279 c 3.84298,0.63253 7.49996,1.92953 10.88057,3.843 z"
       id="path117-2"
       style="stroke-width:1.36073" />
    <path
       d="m 562.51014,391.30868 v 0.36675 c 0,3.90681 -0.66974,7.7445 -1.9879,11.38556 l 2.76393,0.9993 c 1.44048,-3.97063 2.17404,-8.13788 2.17404,-12.39019 v -0.43585 z"
       id="path119-7"
       style="stroke-width:1.36073" />
    <path
       d="m 510.82935,360.40633 1.49368,2.54608 c 3.35394,-1.9826 6.995,-3.33802 10.81147,-4.03976 l -0.53153,-2.90217 c -4.15134,0.77604 -8.11654,2.25365 -11.77352,4.39585 z"
       id="path121-4"
       style="stroke-width:1.36073" />
    <path
       d="m 563.14969,378.89875 c -1.49368,-3.95457 -3.65167,-7.59563 -6.4103,-10.81146 l -2.23773,1.91891 c 2.53546,2.95008 4.51806,6.29341 5.8894,9.92385 z"
       id="path123-0"
       style="stroke-width:1.36073" />
    <path
       d="m 547.40596,423.04106 c 3.65698,-2.12615 6.89404,-4.84763 9.61552,-8.08998 l -2.26441,-1.89225 c -2.49818,2.98722 -5.46948,5.4854 -8.83417,7.43616 z"
       id="path125-6"
       style="stroke-width:1.36073" />
    <path
       d="m 497.97039,403.22873 c -1.33949,-3.62514 -2.0358,-7.45221 -2.05703,-11.36964 l -2.93946,0.0212 c 0.0212,4.25761 0.78666,8.41956 2.23773,12.36883 z"
       id="path127-4"
       style="stroke-width:1.36073" />
    <path
       d="m 511.21035,423.14992 1.47232,-2.55138 c -3.37,-1.93484 -6.35722,-4.41709 -8.87662,-7.3937 l -2.24835,1.91347 c 2.73739,3.21583 5.99037,5.92138 9.65279,8.03148 z"
       id="path129-2"
       style="stroke-width:1.36073" />
    <path
       d="m 503.54941,370.44857 -2.2644,-1.87631 c -2.70556,3.26889 -4.79974,6.94193 -6.21899,10.92835 l 2.77469,0.98865 c 1.29694,-3.66229 3.22113,-7.03759 5.7087,-10.04074 z"
       id="path131-4"
       style="stroke-width:1.36073" />
    <path
       d="m 523.03516,427.40902 c 2.01987,0.35082 4.09813,0.52623 6.18183,0.52623 2.14207,0 4.28945,-0.19134 6.38376,-0.55812 l -0.51028,-2.89687 c -3.80054,0.66974 -7.78178,0.691 -11.55034,0.0319 z"
       id="path133-1"
       style="stroke-width:1.36073" />
    <path
       d="m 371.57935,72.971373 -2.26441,-1.876316 c -2.70555,3.268899 -4.79972,6.94193 -6.21897,10.928343 l 2.77468,0.988666 c 1.29694,-3.66229 3.21583,-7.037604 5.7087,-10.040749 z"
       id="path135"
       style="stroke-width:1.36073" />
    <path
       d="m 366.00032,105.76241 c -1.33948,-3.62514 -2.03579,-7.452204 -2.05702,-11.369631 l -2.93946,0.02123 c 0.0212,4.257611 0.78668,8.419561 2.23772,12.368821 z"
       id="path137"
       style="stroke-width:1.36073" />
    <path
       d="m 403.63832,129.89101 -0.52092,-2.90218 c -3.77386,0.68036 -7.78178,0.69099 -11.55034,0.0372 l -0.50495,2.89688 c 2.01987,0.35081 4.09813,0.52622 6.18182,0.52622 2.15269,0.006 4.30551,-0.18071 6.39439,-0.55811 z"
       id="path139"
       style="stroke-width:1.36073" />
    <path
       d="m 379.2403,125.68633 1.47232,-2.55138 c -3.37001,-1.93483 -6.35723,-4.4171 -8.87664,-7.3937 l -2.24834,1.91346 c 2.73208,3.21583 5.97976,5.91608 9.65279,8.03148 z"
       id="path141"
       style="stroke-width:1.36073" />
    <path
       d="m 425.0427,117.46748 -2.2644,-1.89224 c -2.49818,2.98723 -5.46948,5.4854 -8.83418,7.43615 l 1.47763,2.54608 c 3.6676,-2.11554 6.89935,-4.83702 9.62082,-8.08999 z"
       id="path143"
       style="stroke-width:1.36073" />
    <path
       d="m 56.432651,446.54812 c 2.737402,3.23175 5.97976,5.94261 9.652802,8.04754 l 1.47231,-2.55139 c -3.375303,-1.93483 -6.362535,-4.4277 -8.876627,-7.3937 z"
       id="path145"
       style="stroke-width:1.36073" />
    <path
       d="m 111.63776,399.54826 -2.23773,1.91892 c 2.53546,2.95538 4.51805,6.2934 5.88409,9.92385 l 2.75863,-1.03651 c -1.48838,-3.94926 -3.64638,-7.58501 -6.40499,-10.80615 z"
       id="path147"
       style="stroke-width:1.36073" />
    <path
       d="m 47.846399,423.33395 c 0.02123,4.2523 0.776041,8.41425 2.237733,12.36883 l 2.758625,-1.02055 c -1.339477,-3.62515 -2.035803,-7.45222 -2.057025,-11.35372 z"
       id="path149"
       style="stroke-width:1.36073" />
    <path
       d="m 78.422169,455.96442 -0.504966,2.90218 c 2.025186,0.35082 4.108752,0.52623 6.187145,0.52623 2.147379,-0.006 4.28945,-0.19667 6.378449,-0.56343 l -0.510275,-2.90218 c -3.773866,0.68036 -7.760415,0.70162 -11.550341,0.0371 z"
       id="path151"
       style="stroke-width:1.36073" />
    <path
       d="m 90.08368,387.36966 -0.47838,2.9128 c 3.842998,0.63253 7.499969,1.92953 10.88059,3.84299 l 1.44578,-2.5673 c -3.678204,-2.08901 -7.664752,-3.49219 -11.847934,-4.18849 z"
       id="path153"
       style="stroke-width:1.36073" />
    <path
       d="m 58.432933,401.90234 -2.269707,-1.87632 c -2.705553,3.2689 -4.799724,6.94193 -6.218973,10.92835 l 2.774674,0.98866 c 1.302274,-3.66229 3.226444,-7.03759 5.714006,-10.04075 z"
       id="path155"
       style="stroke-width:1.36073" />
    <path
       d="m 117.40727,422.76244 v 0.37208 c 0,3.90681 -0.66973,7.7445 -1.98789,11.38555 l 2.76392,0.9993 c 1.44049,-3.97062 2.17406,-8.13788 2.17406,-12.39018 v -0.44118 z"
       id="path157"
       style="stroke-width:1.36073" />
    <path
       d="m 100.80629,451.95024 1.47763,2.54608 c 3.65698,-2.12085 6.89403,-4.84762 9.6155,-8.08999 l -2.26439,-1.89224 c -2.48757,2.98723 -5.45887,5.49084 -8.82888,7.43615 z"
       id="path159"
       style="stroke-width:1.36073" />
    <path
       d="m 78.041157,390.3769 -0.531531,-2.89688 c -4.161948,0.77073 -8.121966,2.24835 -11.773504,4.39586 l 1.493678,2.54608 c 3.343329,-1.9879 6.984397,-3.34333 10.81147,-4.04506 z"
       id="path161"
       style="stroke-width:1.36073" />
    <path
       d="m 267.49713,145.57937 c -3.00546,0 -5.00909,2.00364 -5.00909,5.0091 0,3.00546 2.00363,5.00911 5.00909,5.00911 64.1165,0 116.21115,52.09464 116.21115,116.21114 0,64.1165 -52.09465,116.21117 -116.21115,116.21117 -64.11649,0 -116.21114,-52.09467 -116.21114,-116.21117 0,-3.00546 -2.00365,-5.0091 -5.00911,-5.0091 -3.00546,0 -5.00909,2.00364 -5.00909,5.0091 0,69.62365 56.60283,126.22936 126.22934,126.22936 69.62652,0 126.22935,-56.60284 126.22935,-126.22936 0,-69.62651 -56.60283,-126.22935 -126.22935,-126.22935 z"
       id="path34"
       style="stroke-width:0.572469" />
    <path
       d="m 267.49713,206.69041 c 35.56463,0 65.11833,29.05278 65.11833,65.11831 0,36.06553 -29.0528,65.11831 -65.11833,65.11831 -36.06552,0 -65.11831,-29.05278 -65.11831,-65.11831 0,-3.00546 -2.00364,-5.0091 -5.00911,-5.0091 -3.00546,0 -5.00909,2.00364 -5.00909,5.0091 0,41.07464 33.56097,75.13653 75.13651,75.13653 41.57555,0 75.13653,-33.56098 75.13653,-75.13653 0,-41.57554 -33.56098,-75.13651 -75.13653,-75.13651 -3.00546,0 -5.00909,2.00363 -5.00909,5.00909 0,3.00546 2.00363,5.00911 5.00909,5.00911 z"
       id="path36"
       style="stroke-width:0.572469" />
    <path
       d="m 267.49713,291.34135 c -11.02002,0 -19.53549,-9.01638 -19.53549,-19.53549 0,-3.00546 -2.00365,-5.0091 -5.00911,-5.0091 -3.00546,0 -5.0091,2.00364 -5.0091,5.0091 0,16.53003 13.52458,29.5537 29.5537,29.5537 16.02913,0 29.55369,-13.52457 29.55369,-29.5537 0,-16.02913 -13.52456,-29.55369 -29.55369,-29.55369 -3.00546,0 -5.00909,2.00364 -5.00909,5.00911 0,3.00545 2.00363,5.00908 5.00909,5.00908 11.02002,0 19.5355,9.0164 19.5355,19.5355 0,10.51911 -9.01638,19.53549 -19.5355,19.53549 z"
       id="path38-3"
       style="stroke-width:0.572469" />
    <path
       d="m 191.35879,202.68313 -18.53368,18.53367 c -1.00181,1.00182 -1.50272,3.00546 -1.50272,4.5082 0.50091,1.50272 1.50272,3.00546 3.50637,3.50637 l 66.12013,22.04004 c 0.50092,0 1.00183,0.50091 1.50274,0.50091 3.00546,0 5.0091,-2.00365 5.0091,-5.00911 0,-1.00181 0,-1.50272 -0.5009,-2.50454 l -21.53915,-65.11832 c -0.5009,-1.50273 -2.00364,-3.00546 -3.50636,-3.50637 -1.50274,-0.50092 -3.50638,0 -4.50819,1.50273 l -19.03459,18.53367 -76.64211,-76.64211 c -2.00365,-2.00364 -5.00911,-2.00364 -7.01275,0 -2.00363,2.00364 -2.00363,5.0091 0,7.01275 z"
       id="path40"
       style="stroke-width:0.572469" />
    <path
       d="m 267.49713,179.64125 c 50.59193,0 91.6637,41.07464 91.6637,91.6637 0,50.58906 -41.07463,91.6637 -91.6637,91.6637 -50.58906,0 -91.66368,-41.07464 -91.66368,-91.6637 0,-3.00546 -2.00365,-5.00911 -5.00911,-5.00911 -3.00546,0 -5.00911,2.00365 -5.00911,5.00911 0,56.10193 45.58284,101.68191 101.6819,101.68191 56.09908,0 101.68191,-45.08194 101.68191,-101.18386 0,-56.10192 -45.58283,-102.18567 -101.68191,-102.18567 -3.00546,0 -5.00909,2.00365 -5.00909,5.00911 0,3.00546 2.00363,5.0091 5.00909,5.0091 z"
       id="path42"
       style="stroke-width:0.572469" />
  </g>
</svg>
