<svg id="SvgjsSvg1006" width="288" height="288" xmlns="http://www.w3.org/2000/svg" version="1.1" xmlns:xlink="http://www.w3.org/1999/xlink" xmlns:svgjs="http://svgjs.com/svgjs"><defs id="SvgjsDefs1007"></defs><g id="SvgjsG1008" transform="matrix(1,0,0,1,0,0)"><svg xmlns="http://www.w3.org/2000/svg" width="288" height="288" viewBox="0 0 700 700"><path d="M 352.56985,8.1186461 C 163.49544,8.1186461 9.6641225,161.93637 9.6641225,351.02438 c 0,189.08801 153.8313175,342.90573 342.9057275,342.90573 189.0744,0 342.90573,-153.83132 342.90573,-342.90573 0,-189.07441 -153.83133,-342.9057339 -342.90573,-342.9057339 z M 27.3401,351.02438 c 0,-163.96881 121.99823,-299.92005 279.97163,-322.004813 26.94397,7.446908 52.51085,18.152235 76.25435,31.701085 -1.59996,0.653802 -3.18386,1.350117 -4.69346,2.232436 l 1.49369,2.546066 c 2.06763,-1.217217 4.2576,-2.110232 6.5167,-2.849102 15.69611,9.195588 30.55807,19.629988 44.48386,31.179922 l -0.82389,0.02123 v 0.366759 c 0,3.906811 -0.66974,7.744497 -1.9879,11.385577 l 2.76392,0.99929 c 1.29696,-3.56664 1.92953,-7.298054 2.05703,-11.103905 C 506.10062,156.77971 535.07969,250.93206 531.45142,354.64833 526.32318,501.24239 417.58812,622.86415 317.2372,674.89385 159.31005,652.75058 27.334826,514.97332 27.334826,351.04534 Z" fill="#e5e8e8" class="color000 svgShape"></path><path d="M401.32506 486.81232c-3.68882-2.08899-7.67537-3.49218-11.85855-4.18847l-.47838 2.91279c3.84299.63252 7.49997 1.92952 10.88059 3.843zM416.79663 518.01403v.36676c0 3.90681-.66974 7.74449-1.98789 11.38556l2.76392.99929c1.44048-3.97063 2.17406-8.13789 2.17406-12.39019v-.43586zM365.11584 487.11169l1.49368 2.54608c3.35395-1.9826 6.99502-3.33802 10.81147-4.03976l-.53153-2.90218c-4.15134.77604-8.11652 2.25365-11.7735 4.39586zM417.43618 505.60411c-1.49368-3.95458-3.65167-7.59563-6.4103-10.81147l-2.23773 1.91892c2.53546 2.95007 4.51806 6.2934 5.88941 9.92385zM401.69246 549.74642c3.65698-2.12615 6.89403-4.84763 9.61551-8.09l-2.2644-1.89224c-2.49818 2.98723-5.46948 5.48541-8.83418 7.43616zM352.25688 529.93408c-1.33949-3.62513-2.0358-7.4522-2.05702-11.36963l-2.93947.0212c.0212 4.25761.78667 8.41956 2.23773 12.36884zM365.49686 549.85528l1.47231-2.55139c-3.37-1.93483-6.35723-4.41708-8.87663-7.3937l-2.24835 1.91347c2.7374 3.21584 5.99038 5.92139 9.6528 8.03147zM357.8359 497.15393l-2.2644-1.87632c-2.70555 3.2689-4.79972 6.94193-6.21897 10.92835l2.77467.98866c1.29694-3.66229 3.22114-7.0376 5.7087-10.04075zM377.32166 554.11438c2.01988.35081 4.09812.52622 6.18183.52622 2.14207 0 4.28945-.19134 6.38375-.55811l-.51027-2.89688c-3.80053.66975-7.78179.69099-11.55034.0318zM180.41485 588.87083c-3.80819-2.15661-7.92372-3.60519-12.24225-4.32401l-.49387 3.00704c3.96734.65299 7.74265 1.99195 11.23265 3.96734zM196.38703 621.08211v.37862c0 4.03322-.6914 7.99509-2.05223 11.75396l2.85338 1.03163c1.48708-4.09911 2.24438-8.40121 2.24438-12.79109v-.44997zM143.03402 589.17988l1.54202 2.62845c3.46246-2.04675 7.22134-3.44604 11.16128-4.17046l-.54873-2.99609c-4.28565.80115-8.37914 2.32657-12.15446 4.5381zM197.04727 608.27064c-1.54202-4.08252-3.76982-7.8414-6.61772-11.16128l-2.31013 1.981c2.6175 3.04554 4.66425 6.49704 6.07997 10.24495zM135.51852 599.54705l-2.33766-1.93704c-2.79311 3.37467-4.95503 7.16655-6.4202 11.28196l2.86446 1.02064c1.33891-3.78078 3.32536-7.2653 5.8934-10.36562zM547.03857 360.10698c-3.68882-2.08901-7.67538-3.4922-11.85855-4.18849l-.47838 2.91279c3.84298.63253 7.49996 1.92953 10.88057 3.843zM562.51014 391.30868v.36675c0 3.90681-.66974 7.7445-1.9879 11.38556l2.76393.9993c1.44048-3.97063 2.17404-8.13788 2.17404-12.39019v-.43585zM510.82935 360.40633l1.49368 2.54608c3.35394-1.9826 6.995-3.33802 10.81147-4.03976l-.53153-2.90217c-4.15134.77604-8.11654 2.25365-11.77352 4.39585zM563.14969 378.89875c-1.49368-3.95457-3.65167-7.59563-6.4103-10.81146l-2.23773 1.91891c2.53546 2.95008 4.51806 6.29341 5.8894 9.92385zM547.40596 423.04106c3.65698-2.12615 6.89404-4.84763 9.61552-8.08998l-2.26441-1.89225c-2.49818 2.98722-5.46948 5.4854-8.83417 7.43616zM497.97039 403.22873c-1.33949-3.62514-2.0358-7.45221-2.05703-11.36964l-2.93946.0212c.0212 4.25761.78666 8.41956 2.23773 12.36883zM511.21035 423.14992l1.47232-2.55138c-3.37-1.93484-6.35722-4.41709-8.87662-7.3937l-2.24835 1.91347c2.73739 3.21583 5.99037 5.92138 9.65279 8.03148zM503.54941 370.44857l-2.2644-1.87631c-2.70556 3.26889-4.79974 6.94193-6.21899 10.92835l2.77469.98865c1.29694-3.66229 3.22113-7.03759 5.7087-10.04074zM523.03516 427.40902c2.01987.35082 4.09813.52623 6.18183.52623 2.14207 0 4.28945-.19134 6.38376-.55812l-.51028-2.89687c-3.80054.66974-7.78178.691-11.55034.0319zM371.57935 72.971373l-2.26441-1.876316c-2.70555 3.268899-4.79972 6.94193-6.21897 10.928343l2.77468.988666c1.29694-3.66229 3.21583-7.037604 5.7087-10.040749zM366.00032 105.76241c-1.33948-3.62514-2.03579-7.452204-2.05702-11.369631l-2.93946.02123c.0212 4.257611.78668 8.419561 2.23772 12.368821zM403.63832 129.89101l-.52092-2.90218c-3.77386.68036-7.78178.69099-11.55034.0372l-.50495 2.89688c2.01987.35081 4.09813.52622 6.18182.52622 2.15269.006 4.30551-.18071 6.39439-.55811zM379.2403 125.68633l1.47232-2.55138c-3.37001-1.93483-6.35723-4.4171-8.87664-7.3937l-2.24834 1.91346c2.73208 3.21583 5.97976 5.91608 9.65279 8.03148zM425.0427 117.46748l-2.2644-1.89224c-2.49818 2.98723-5.46948 5.4854-8.83418 7.43615l1.47763 2.54608c3.6676-2.11554 6.89935-4.83702 9.62082-8.08999zM56.432651 446.54812c2.737402 3.23175 5.97976 5.94261 9.652802 8.04754l1.47231-2.55139c-3.375303-1.93483-6.362535-4.4277-8.876627-7.3937zM111.63776 399.54826l-2.23773 1.91892c2.53546 2.95538 4.51805 6.2934 5.88409 9.92385l2.75863-1.03651c-1.48838-3.94926-3.64638-7.58501-6.40499-10.80615zM47.846399 423.33395c.02123 4.2523.776041 8.41425 2.237733 12.36883l2.758625-1.02055c-1.339477-3.62515-2.035803-7.45222-2.057025-11.35372zM78.422169 455.96442l-.504966 2.90218c2.025186.35082 4.108752.52623 6.187145.52623 2.147379-.006 4.28945-.19667 6.378449-.56343l-.510275-2.90218c-3.773866.68036-7.760415.70162-11.550341.0371zM90.08368 387.36966l-.47838 2.9128c3.842998.63253 7.499969 1.92953 10.88059 3.84299l1.44578-2.5673c-3.678204-2.08901-7.664752-3.49219-11.847934-4.18849zM58.432933 401.90234l-2.269707-1.87632c-2.705553 3.2689-4.799724 6.94193-6.218973 10.92835l2.774674.98866c1.302274-3.66229 3.226444-7.03759 5.714006-10.04075zM117.40727 422.76244v.37208c0 3.90681-.66973 7.7445-1.98789 11.38555l2.76392.9993c1.44049-3.97062 2.17406-8.13788 2.17406-12.39018v-.44118zM100.80629 451.95024l1.47763 2.54608c3.65698-2.12085 6.89403-4.84762 9.6155-8.08999l-2.26439-1.89224c-2.48757 2.98723-5.45887 5.49084-8.82888 7.43615zM78.041157 390.3769l-.531531-2.89688c-4.161948.77073-8.121966 2.24835-11.773504 4.39586l1.493678 2.54608c3.343329-1.9879 6.984397-3.34333 10.81147-4.04506zM267.49713 145.57937c-3.00546 0-5.00909 2.00364-5.00909 5.0091 0 3.00546 2.00363 5.00911 5.00909 5.00911 64.1165 0 116.21115 52.09464 116.21115 116.21114 0 64.1165-52.09465 116.21117-116.21115 116.21117-64.11649 0-116.21114-52.09467-116.21114-116.21117 0-3.00546-2.00365-5.0091-5.00911-5.0091-3.00546 0-5.00909 2.00364-5.00909 5.0091 0 69.62365 56.60283 126.22936 126.22934 126.22936 69.62652 0 126.22935-56.60284 126.22935-126.22936 0-69.62651-56.60283-126.22935-126.22935-126.22935z" fill="#e5e8e8" class="color000 svgShape"></path><path d="m 267.49713,206.69041 c 35.56463,0 65.11833,29.05278 65.11833,65.11831 0,36.06553 -29.0528,65.11831 -65.11833,65.11831 -36.06552,0 -65.11831,-29.05278 -65.11831,-65.11831 0,-3.00546 -2.00364,-5.0091 -5.00911,-5.0091 -3.00546,0 -5.00909,2.00364 -5.00909,5.0091 0,41.07464 33.56097,75.13653 75.13651,75.13653 41.57555,0 75.13653,-33.56098 75.13653,-75.13653 0,-41.57554 -33.56098,-75.13651 -75.13653,-75.13651 -3.00546,0 -5.00909,2.00363 -5.00909,5.00909 0,3.00546 2.00363,5.00911 5.00909,5.00911 z" fill="#e5e8e8" class="color000 svgShape"></path><path d="M267.49713 291.34135c-11.02002 0-19.53549-9.01638-19.53549-19.53549 0-3.00546-2.00365-5.0091-5.00911-5.0091-3.00546 0-5.0091 2.00364-5.0091 5.0091 0 16.53003 13.52458 29.5537 29.5537 29.5537 16.02913 0 29.55369-13.52457 29.55369-29.5537 0-16.02913-13.52456-29.55369-29.55369-29.55369-3.00546 0-5.00909 2.00364-5.00909 5.00911 0 3.00545 2.00363 5.00908 5.00909 5.00908 11.02002 0 19.5355 9.0164 19.5355 19.5355 0 10.51911-9.01638 19.53549-19.5355 19.53549zM191.35879 202.68313l-18.53368 18.53367c-1.00181 1.00182-1.50272 3.00546-1.50272 4.5082.50091 1.50272 1.50272 3.00546 3.50637 3.50637l66.12013 22.04004c.50092 0 1.00183.50091 1.50274.50091 3.00546 0 5.0091-2.00365 5.0091-5.00911 0-1.00181 0-1.50272-.5009-2.50454l-21.53915-65.11832c-.5009-1.50273-2.00364-3.00546-3.50636-3.50637-1.50274-.50092-3.50638 0-4.50819 1.50273l-19.03459 18.53367-76.64211-76.64211c-2.00365-2.00364-5.00911-2.00364-7.01275 0-2.00363 2.00364-2.00363 5.0091 0 7.01275z" fill="#e5e8e8" class="color000 svgShape"></path><path d="m 267.49713,179.64125 c 50.59193,0 91.6637,41.07464 91.6637,91.6637 0,50.58906 -41.07463,91.6637 -91.6637,91.6637 -50.58906,0 -91.66368,-41.07464 -91.66368,-91.6637 0,-3.00546 -2.00365,-5.00911 -5.00911,-5.00911 -3.00546,0 -5.00911,2.00365 -5.00911,5.00911 0,56.10193 45.58284,101.68191 101.6819,101.68191 56.09908,0 101.68191,-45.08194 101.68191,-101.18386 0,-56.10192 -45.58283,-102.18567 -101.68191,-102.18567 -3.00546,0 -5.00909,2.00365 -5.00909,5.00911 0,3.00546 2.00363,5.0091 5.00909,5.0091 z" fill="#e5e8e8" class="color000 svgShape"></path></svg></g></svg>